HIERARCHY
ROOT joint_Root
{
	OFFSET 0.0 0.0 0.0
	CHANNELS 6 Xposition Yposition Zposition Zrotation Xrotation Yrotation 
	JOINT Hips
	{
		OFFSET -17.1583 93.1646 452.98
		CHANNELS 6 Xposition Yposition Zposition Zrotation Xrotation Yrotation 
		JOINT Spine
		{
			OFFSET 15.7357 0.0 0.0
			CHANNELS 6 Xposition Yposition Zposition Zrotation Xrotation Yrotation 
			JOINT Chest
			{
				OFFSET 8.98455 -0.406207 0.0
				CHANNELS 6 Xposition Yposition Zposition Zrotation Xrotation Yrotation 
				JOINT Neck
				{
					OFFSET 16.3773 0.0 0.0
					CHANNELS 6 Xposition Yposition Zposition Zrotation Xrotation Yrotation 
					JOINT Head
					{
						OFFSET 6.45672 0.0 0.0
						CHANNELS 6 Xposition Yposition Zposition Zrotation Xrotation Yrotation 
						End Site
						{
							OFFSET 0.0 0.0 0.0
						}
					}
				}
				JOINT Shoulder_L
				{
					OFFSET 12.9942 -0.242716 4.98039
					CHANNELS 6 Xposition Yposition Zposition Zrotation Xrotation Yrotation 
					JOINT UpperArm_L
					{
						OFFSET 5.34809 0.0 0.0
						CHANNELS 6 Xposition Yposition Zposition Zrotation Xrotation Yrotation 
						JOINT LowerArm_L
						{
							OFFSET 24.3286 1.87007e-05 0.0
							CHANNELS 6 Xposition Yposition Zposition Zrotation Xrotation Yrotation 
							JOINT Hand_L
							{
								OFFSET 22.2916 0.0 0.0
								CHANNELS 6 Xposition Yposition Zposition Zrotation Xrotation Yrotation 
								End Site
								{
									OFFSET 0.0 0.0 0.0
								}
							}
						}
					}
				}
				JOINT Shoulder_R
				{
					OFFSET 12.9945 -0.242716 -4.98039
					CHANNELS 6 Xposition Yposition Zposition Zrotation Xrotation Yrotation 
					JOINT UpperArm_R
					{
						OFFSET -5.34813 0.0 0.0
						CHANNELS 6 Xposition Yposition Zposition Zrotation Xrotation Yrotation 
						JOINT LowerArm_R
						{
							OFFSET -24.3289 0.000322201 0.0
							CHANNELS 6 Xposition Yposition Zposition Zrotation Xrotation Yrotation 
							JOINT Hand_R
							{
								OFFSET -22.2915 -0.000108084 0.0
								CHANNELS 6 Xposition Yposition Zposition Zrotation Xrotation Yrotation 
								End Site
								{
									OFFSET 0.0 0.0 0.0
								}
							}
						}
					}
				}
			}
		}
		JOINT UpperLeg_L
		{
			OFFSET -2.19248 -6.46944 0.0
			CHANNELS 6 Xposition Yposition Zposition Zrotation Xrotation Yrotation 
			JOINT LowerLeg_L
			{
				OFFSET 39.0811 0.0 -1.23785e-05
				CHANNELS 6 Xposition Yposition Zposition Zrotation Xrotation Yrotation 
				JOINT Foot_L
				{
					OFFSET 40.9854 0.0 -1.26872e-05
					CHANNELS 6 Xposition Yposition Zposition Zrotation Xrotation Yrotation 
					JOINT Toes_L
					{
						OFFSET 11.7543 0.0 0.0
						CHANNELS 6 Xposition Yposition Zposition Zrotation Xrotation Yrotation 
						End Site
						{
							OFFSET 0.0 0.0 0.0
						}
					}
				}
			}
		}
		JOINT UpperLeg_R
		{
			OFFSET -2.19251 6.46944 0.0
			CHANNELS 6 Xposition Yposition Zposition Zrotation Xrotation Yrotation 
			JOINT LowerLeg_R
			{
				OFFSET -39.0811 -0.00228153 -0.0401928
				CHANNELS 6 Xposition Yposition Zposition Zrotation Xrotation Yrotation 
				JOINT Foot_R
				{
					OFFSET -40.9854 0.0 0.0
					CHANNELS 6 Xposition Yposition Zposition Zrotation Xrotation Yrotation 
					JOINT Toes_R
					{
						OFFSET -11.7543 0.0 0.0
						CHANNELS 6 Xposition Yposition Zposition Zrotation Xrotation Yrotation 
						End Site
						{
							OFFSET 0.0 0.0 0.0
						}
					}
				}
			}
		}
	}
}
MOTION
Frames:	6
Frame Time:	0.0333333
0.000000 0.000000 0.000000 0.000000 0.000000 -0.000000 -0.117374 92.887800 -0.243057 87.237200 1.602960 1.382220 15.735700 0.000005 -0.000001 68.729400 87.403900 -66.907900 8.984550 -0.406207 -0.000000 -2.893100 -2.052200 3.591850 16.377300 -0.000001 -0.000001 5.135870 1.438100 -2.833110 6.456720 -0.000001 -0.000000 3.665200 0.388835 -1.727930 12.994200 -0.242716 4.980390 -92.631900 7.842360 -71.382100 5.348090 -0.000007 -0.000001 -74.459200 16.612800 0.468938 24.328600 0.000019 0.000005 12.327800 25.670800 -26.770300 22.291600 -0.000001 0.000005 -2.193670 4.975940 7.826570 12.994500 -0.242716 -4.980390 88.516700 4.782640 -72.747000 -5.348130 -0.000001 -0.000004 -70.906100 30.069900 -4.247300 -24.328900 0.000322 -0.000009 2.135020 7.344090 -16.266600 -22.291500 -0.000108 -0.000004 1.768380 5.222150 2.157720 -2.192480 -6.469440 -0.000000 -176.887000 2.555420 -2.349480 39.081100 -0.000007 -0.000012 0.204111 -0.568129 19.762100 40.985400 -0.000006 -0.000013 3.078070 10.115900 -72.108900 11.754300 -0.000000 0.000003 -0.000522 0.175988 -9.438330 -2.192510 6.469440 -0.000001 -175.680000 6.043960 -178.010000 -39.081100 -0.002282 -0.040193 0.032572 -0.128767 12.792700 -40.985400 0.000008 0.000006 -1.004300 0.857103 -69.031300 -11.754300 -0.000006 -0.000006 -0.009997 0.271283 -5.551900
0.000000 0.000000 0.000000 0.000000 0.000000 -0.000000 -0.210182 92.883300 -0.278888 87.212800 1.663290 1.343190 15.735700 0.000005 -0.000001 68.614700 87.405900 -66.788800 8.984550 -0.406207 -0.000000 -2.900330 -2.060970 3.600390 16.377300 -0.000001 -0.000001 4.947240 1.343070 -2.679670 6.456720 -0.000001 -0.000000 3.634830 0.364651 -1.671600 12.994200 -0.242716 4.980390 -92.640300 7.872590 -71.392900 5.348090 -0.000007 -0.000001 -74.213600 15.454400 0.334635 24.328600 0.000019 0.000005 12.342800 24.780400 -27.567400 22.291600 -0.000001 0.000005 -1.777300 4.978560 7.771820 12.994500 -0.242716 -4.980390 88.543100 4.708570 -72.785100 -5.348130 -0.000001 -0.000004 -71.019800 29.980000 -4.211340 -24.328900 0.000322 -0.000009 2.160220 7.448100 -16.232000 -22.291500 -0.000108 -0.000004 1.701750 5.220360 2.203520 -2.192480 -6.469440 -0.000000 -176.789000 2.671800 -2.471130 39.081100 -0.000007 -0.000012 0.205824 -0.570048 19.853200 40.985400 -0.000006 -0.000013 3.011530 10.143200 -72.126800 11.754300 -0.000000 0.000003 -0.000431 0.174590 -9.495140 -2.192510 6.469440 -0.000001 -175.564000 6.043450 -178.091000 -39.081100 -0.002282 -0.040193 0.033638 -0.133257 12.811600 -40.985400 0.000008 0.000006 -0.926813 0.792400 -69.023900 -11.754300 -0.000006 -0.000006 -0.010103 0.272077 -5.519410
0.000000 0.000000 0.000000 0.000000 0.000000 -0.000000 -0.322839 92.881300 -0.302326 87.188800 1.740080 1.328050 15.735700 0.000005 -0.000001 68.638100 87.405500 -66.809000 8.984550 -0.406207 -0.000000 -2.898770 -2.059560 3.606780 16.377300 -0.000001 -0.000001 4.812350 1.246260 -2.559500 6.456720 -0.000001 -0.000000 3.526370 0.224297 -1.478750 12.994200 -0.242716 4.980390 -92.645000 7.882270 -71.383000 5.348090 -0.000007 -0.000001 -73.948100 14.154700 0.270642 24.328600 0.000019 0.000005 12.679600 23.904700 -29.040000 22.291600 -0.000001 0.000005 -1.244420 4.961870 8.119820 12.994500 -0.242716 -4.980390 88.558100 4.671730 -72.826700 -5.348130 -0.000001 -0.000004 -71.084200 29.921500 -4.157290 -24.328900 0.000322 -0.000009 2.155390 7.438210 -16.217900 -22.291500 -0.000108 -0.000004 1.766030 5.219950 2.214050 -2.192480 -6.469440 -0.000000 -176.678000 2.736190 -2.548340 39.081100 -0.000007 -0.000012 0.206294 -0.569246 19.920800 40.985400 -0.000006 -0.000013 2.942020 10.207800 -72.186200 11.754300 -0.000000 0.000003 -0.000538 0.176240 -9.428120 -2.192510 6.469440 -0.000001 -175.430000 5.930960 -178.103000 -39.081100 -0.002282 -0.040193 0.033826 -0.134614 12.763100 -40.985400 0.000008 0.000006 -0.833722 0.580753 -69.026500 -11.754300 -0.000006 -0.000006 -0.010276 0.273357 -5.467070
0.000000 0.000000 0.000000 0.000000 0.000000 -0.000000 -0.446739 92.869900 -0.319606 87.155900 1.871130 1.326660 15.735700 0.000005 -0.000001 68.695700 87.395700 -66.863400 8.984550 -0.406207 -0.000000 -2.878560 -2.061780 3.613400 16.377300 -0.000001 -0.000001 4.632810 1.107330 -2.404960 6.456720 -0.000001 -0.000000 3.396430 0.045583 -1.268720 12.994200 -0.242716 4.980390 -92.652700 7.902440 -71.376600 5.348090 -0.000007 -0.000001 -73.634100 12.333100 0.299266 24.328600 0.000019 0.000005 13.865900 23.588100 -31.668300 22.291600 -0.000001 0.000005 -0.674231 4.947860 8.408450 12.994500 -0.242716 -4.980390 88.566600 4.638500 -72.806400 -5.348130 -0.000001 -0.000004 -71.105800 29.920500 -4.165990 -24.328900 0.000322 -0.000009 2.165230 7.484070 -16.194100 -22.291500 -0.000108 -0.000004 1.758630 5.220640 2.196480 -2.192480 -6.469440 -0.000000 -176.560000 2.899600 -2.654180 39.081100 -0.000007 -0.000012 0.210428 -0.576188 20.063000 40.985400 -0.000006 -0.000013 2.849990 10.185700 -72.246400 11.754300 -0.000000 0.000003 -0.000591 0.177035 -9.395820 -2.192510 6.469440 -0.000001 -175.277000 5.957800 -178.129000 -39.081100 -0.002282 -0.040193 0.034946 -0.139481 12.769700 -40.985400 0.000008 0.000006 -0.700453 0.426648 -69.030400 -11.754300 -0.000006 -0.000006 -0.010212 0.272885 -5.486350
0.000000 0.000000 0.000000 0.000000 0.000000 -0.000000 -0.578195 92.860500 -0.326748 87.141300 1.982590 1.424030 15.735700 0.000005 -0.000001 68.835000 87.363300 -67.006700 8.984550 -0.406207 -0.000000 -2.813520 -2.071940 3.606370 16.377300 -0.000001 -0.000001 4.543300 0.949963 -2.279360 6.456720 -0.000001 -0.000000 3.190270 -0.189151 -1.056220 12.994200 -0.242716 4.980390 -92.659700 7.900430 -71.326800 5.348090 -0.000007 -0.000001 -73.328100 10.295200 0.506784 24.328600 0.000019 0.000005 15.464500 22.958500 -35.346100 22.291600 -0.000001 0.000005 0.304539 4.930260 8.768070 12.994500 -0.242716 -4.980390 88.570800 4.629200 -72.821900 -5.348130 -0.000001 -0.000004 -71.113900 29.928900 -4.149380 -24.328900 0.000322 -0.000009 2.163430 7.473930 -16.202000 -22.291500 -0.000108 -0.000004 1.874850 5.219710 2.220190 -2.192480 -6.469440 -0.000000 -176.460000 3.008990 -2.620160 39.081100 -0.000007 -0.000012 0.210989 -0.574731 20.159000 40.985400 -0.000006 -0.000013 2.758840 10.178900 -72.336500 11.754300 -0.000000 0.000003 -0.000583 0.176917 -9.400610 -2.192510 6.469440 -0.000001 -175.177000 6.058560 -178.030000 -39.081100 -0.002282 -0.040193 0.035047 -0.139973 12.765500 -40.985400 0.000008 0.000006 -0.594658 0.379920 -69.062400 -11.754300 -0.000006 -0.000006 -0.010310 0.273609 -5.456760
0.000000 0.000000 0.000000 0.000000 0.000000 -0.000000 -0.729974 92.845500 -0.356939 87.101500 2.099070 1.379150 15.735700 0.000005 -0.000001 69.069000 87.381800 -67.254500 8.984550 -0.406207 -0.000000 -2.841170 -2.037810 3.579130 16.377300 -0.000001 -0.000001 4.457850 0.747340 -2.201150 6.456720 -0.000001 -0.000000 2.998350 -0.511142 -0.776295 12.994200 -0.242716 4.980390 -92.650000 7.848420 -71.275900 5.348090 -0.000007 -0.000001 -73.001200 8.172720 0.735647 24.328600 0.000019 0.000005 18.098100 22.688600 -40.272300 22.291600 -0.000001 0.000005 1.533940 4.915400 9.068620 12.994500 -0.242716 -4.980390 88.562200 4.650470 -72.798600 -5.348130 -0.000001 -0.000004 -71.114700 29.930200 -4.134980 -24.328900 0.000322 -0.000009 2.151820 7.419510 -16.230900 -22.291500 -0.000108 -0.000004 1.807160 5.220990 2.187520 -2.192480 -6.469440 -0.000000 -176.311000 3.207900 -2.803220 39.081100 -0.000007 -0.000012 0.212950 -0.574767 20.329900 40.985400 -0.000006 -0.000013 2.649050 10.163600 -72.342200 11.754300 -0.000000 0.000003 -0.000404 0.174175 -9.511990 -2.192510 6.469440 -0.000001 -175.004000 6.115820 -178.136000 -39.081100 -0.002282 -0.040193 0.036495 -0.145737 12.818700 -40.985400 0.000008 0.000006 -0.458322 0.303952 -69.058500 -11.754300 -0.000006 -0.000006 -0.010016 0.271428 -5.545960
